<?xml version="1.0" encoding="utf-8"?>
<!-- Generator: Adobe Illustrator 24.2.1, SVG Export Plug-In . SVG Version: 6.00 Build 0)  -->
<svg version="1.1" id="Layer_1" xmlns="http://www.w3.org/2000/svg" xmlns:xlink="http://www.w3.org/1999/xlink" x="0px" y="0px"
	 viewBox="0 0 1410 330.2" style="enable-background:new 0 0 1410 330.2;" xml:space="preserve">
<style type="text/css">
	.st0{fill:none;}
	.st1{fill:#FFFFFF;}
	.st2{fill:#ED1B2E;}
	.st3{fill:#231F20;}
</style>
<rect id="background_11_" x="0.8" class="st0" width="1410" height="328.8"/>
<g>
	<g>
		<g>
			<path class="st1" d="M640.2,135c7,0,10.9,1.2,14.1,3.4c3.3,2.3,5,5.8,5,10.6c0,8.5-8,12.7-12.7,13.8v0.2
				c8.8,1.3,16.7,6.5,16.7,16.2c0,6.9-3.4,11.7-9,14.9c-4.9,2.7-11.1,3.7-18.5,3.7h-22.2v-2.2c8.1-0.6,8.9-1.3,8.9-11.8V149
				c-0.1-10.5-0.7-11.2-8.3-11.8V135H640.2z M630.8,162.3h6.1c9.3,0,13.9-4.3,13.9-12.3c0-5.8-2.4-12.3-13.8-12.3
				c-3.2,0-4.5,0.3-5.3,0.6c-0.6,0.2-0.9,0.6-0.9,2.5V162.3z M630.8,165.1v21.1c0,6.5,1.3,8.7,8.3,8.6c8.1,0,15-4.1,15-14.3
				c0-10.5-7.7-15.4-17.7-15.4L630.8,165.1L630.8,165.1z"/>
			<path class="st1" d="M697,183.8c0,10.5,0.8,11.2,8.7,11.8v2.2H680v-2.2c8.1-0.6,8.9-1.3,8.9-11.8V149c0-10.5-0.8-11.2-8.5-11.8
				V135H705c6.2,0,11.7,0.9,15.3,3.3c3.9,2.4,6.4,6.8,6.4,12.4c0,8-4.9,13.7-12.8,16.9c1.7,2.9,5.7,9.6,8.6,13.8
				c3.5,5.1,5.5,7.7,8.1,10.6c2,2.4,3.8,4,7.2,4.8l-0.2,1.8h-1.4c-11.1-0.3-14.5-3.7-18.2-9c-3-4.3-7.1-11.5-9.8-16
				c-1.5-2.5-3.1-3.5-6.1-3.5H697V183.8z M697,167.4h5.6c4,0,7.1-0.5,9.7-2.6c4.2-3.3,5.6-8,5.6-12.8c0-10.1-7.3-14.2-14.6-14.2
				c-3.3,0-4.6,0.2-5.4,0.5c-0.6,0.2-0.9,0.7-0.9,2.6L697,167.4L697,167.4z"/>
			<path class="st1" d="M814.3,165.5c0,20.1-14,33.7-32.5,33.7c-18.3,0-31.2-13.9-31.2-32.2c0-16.2,11.4-33.5,32.9-33.5
				C800.3,133.5,814.3,146.5,814.3,165.5z M781.1,136.7c-11.4,0-21.1,9.4-21.1,27.5c0,18.6,9.8,31.8,23.9,31.8
				c11.6,0,21.1-9,21.1-27C804.9,148.2,794.9,136.7,781.1,136.7z"/>
			<path class="st1" d="M851.8,137.2l-3,0.4c-4.3,0.6-4.9,1.4-3.6,5.7l13,41.2h0.2l15.5-48.5h2.3l17.5,48.4h0.2
				c4-12.2,9.6-32.6,11.2-39.5c1.4-5.6,0.9-6.8-3.5-7.2l-2.8-0.4V135h20.5v2.2c-6.4,0.8-7.1,1.2-10.2,10c-0.9,2.4-7.9,24.6-16,51.2
				h-2.6L873,151.1l-0.2,0.2l-15.7,47h-2.7l-16.7-51.9c-2.6-8-4.1-8.7-9.6-9.3V135h23.7V137.2z"/>
			<path class="st1" d="M989.7,198.5h-2.5l-41.9-50.9H945v24.6c0,10.1,0.4,15.4,0.8,18.4c0.5,3.4,3.1,4.7,9.5,5v2.2h-23.2v-2.2
				c5.3-0.2,7.8-1.6,8.3-5c0.4-3,0.8-8.2,0.8-18.4v-21c0-7-0.1-8.5-1.8-10.7c-1.8-2.3-4.4-3-8.5-3.3V135H945l40.7,48.7h0.2v-23.1
				c0-10.1-0.4-15.4-0.8-18.4c-0.5-3.4-3.1-4.7-9.5-5V135h23.2v2.2c-5.3,0.2-7.8,1.6-8.3,5c-0.4,3-0.8,8.2-0.8,18.4V198.5z"/>
		</g>
	</g>
	<polygon class="st2" points="483.8,303.2 494.6,305.9 505.2,303.2 505.2,220.1 573.3,220.1 573.3,201 505.2,201 505.2,138.9 
		483.8,138.9 483.8,201 415.7,201 415.7,220.1 483.8,220.1 	"/>
	<g>
		<path class="st2" d="M452.5,105.6c-6.9-0.6-13.7,1.9-13.3,2.3c1.1,1.1,3.9,9.4,7.5,11c10.9,3.1,21.6,0,20.5-1.3
			C464.3,114,464.3,106.6,452.5,105.6L452.5,105.6z"/>
	</g>
	<path class="st2" d="M505.9,106.2c-6.9-0.6-13.8,1.9-13.3,2.3c1.1,1.1,3.9,9.4,7.5,11c11,3.1,21.6,0,20.5-1.3
		C517.7,114.6,517.7,107.2,505.9,106.2L505.9,106.2z"/>
	<g>
		<path class="st2" d="M553.3,119.1c10.9,3.1,18.2,0.2,19.2-2c1.2-2.5-1.6-10.3-13.4-11.3c-6.9-0.6-13.7,1.9-13.3,2.3
			C546.8,109.2,549.7,117.5,553.3,119.1L553.3,119.1z"/>
	</g>
	<path class="st3" d="M580.4,84.6c-1-0.7-11.3-2-12.9-2c-1.6,0-10.5,0.1-13.9,0.6c-5.3,0.8-14.4,0.8-21.4,0
		c-2.5-0.3-5.3,0.3-7.5,1.1c0.4-0.4,0.9-0.8,1.5-1.4c2-2.1,4.3-6.1,8.4-8.1c1-0.5,2-1,2.9-1.5c3.4,1.7,8.8,2.9,15.5-0.3
		c10,5,15.9,1.6,18-0.2c2.6-2.2,4-5.4,4-8.6c0-1.1-0.2-2.3-0.5-3.3c-1.4-4.3-5.4-7-10.8-7.7c-0.3-1.2-0.8-2.2-1.4-3.2
		c0.6-0.8,1.2-1.6,1.6-2c0.5-0.6,2.1-3.3-2.3-1c-0.2,0.1-0.6,0.3-1.2,0.7c-0.6-0.6-1.3-1.2-2.1-1.6c-4.1-2.5-9.6-2.8-15.3-1.3
		c-0.8-3-2.3-5.6-4.7-7.1c-2.5-1.5-5.7-2-9.4-1.4c0.2-0.5,0.4-1,0.6-1.4c1.7-3.5,0.8-4.3-1-2.8c-2,1.7-3.2,3-4.1,4
		c-3.5-5.6-8.1-9.5-13.6-10.9c-4.7-1.3-9.9-0.6-14.5,1.6c-0.3-2.3-0.6-4.2-0.9-5.3c-0.9-2.8-1.9-0.6-2.1,0.3
		c-0.2,1.2-0.5,2.8-0.8,4.7c-4.6-2.5-9.7-3.2-14.5-1.7c-5.3,1.6-9.3,5.5-11.6,11c-1.9-0.7-3.6-1.1-5.3-1.4c-1-1.3-2.4-2.9-4.4-4.6
		c-1.3-1.2-2.5-0.6-1.7,1.8c0.3,0.9,0.6,1.7,0.8,2.5c-3.8,0.2-6.5,1.4-8.4,2.9c-3.7,2.8-5.1,6.9-5.4,9.4c-0.2,0.1-0.5,0.1-0.5,0.1
		c-3.1,0.7-7.2,1.9-9.8,5.9c-0.5-0.3-0.8-0.5-0.9-0.6c-7.7-5.1-4.2,1.5-1.2,4.4c-10.3,1.5-13.2,6.4-13.9,9.3
		c-0.2,0.7-0.3,1.5-0.3,2.3c0,3.3,1.7,6.7,4.7,8.7c3.4,2.3,7.6,2.2,11.3-0.2c4.8,1.6,11.7,1.3,16.6-2.3c2.8,3,5.1,5.2,6.3,6.4
		c3.1,3.1,7.6,5.4,9.9,6.3c-2.3-0.9-6.1-1.8-9.9-1.3c-8.2,1.1-13.7-0.3-17.2-0.7c-5.8-0.6-11.8,0.4-14.7,0.4c-3.1,0-7.6,1.5-9.7,1.8
		c-2.3,0.4-2.2,1.9,1.1,2.8c3.2,0.9,9.3,1.4,10.9,2.1c5.2,2.3,14,4.2,20.2,3.7c4.4-0.3,8.8,1.8,9.9,2.1c2.2,0.7,7.6,2.1,9.8,2.1
		c0-0.1,0,3.1,0.2,4.7c-0.8,0.3-1.6,0.6-2.4,0.9c-2.5-1.5-13.2-5.9-26.4-0.4c-2.8-1-8.6-4.2-16.7-1.5c-9.9,3.3-8.3,12.4-5,16.5
		c4.4,5.6,12.6,4.5,15,1.7c5.3,3.5,10.8,2.3,14.7-0.1c2.6,1.5,15.4,4.1,25.1,0.1c1.3,1,6.7,3.8,13.5,0.3c4,2.3,10.5,2.5,13.8-0.4
		c1.2,1,4.9,2.5,12.6,2.4c9.3-0.1,11.5-1.5,12.8-2.6c2,0.9,7.2,3.7,13.7,0.9c3.5,2.2,10.5,2.1,14.2-0.4c6.9,3.1,19.4,1.7,22.6-0.5
		c5.6-3.9,2.9-11.9-3.3-15.6c-12.2-6.1-23.5-1.4-26.5,0.2c-3.6-2.4-11.1-4-18.9-2.5c0.1-0.9,0-2,0-3.2c0-0.1,0-0.2,0-0.4
		c1.5-0.5,3.7-2.1,8.2-2.4c6.1-0.4,20.4-0.2,27.6-3.9c4.1-2.1,18.3-4.9,20.2-6C581.9,86.1,581.4,85.3,580.4,84.6L580.4,84.6z
		 M528.1,76.4c-5.2,6.1-7.8,8.2-8.7,8.2c-1-2-3.2-4.3-4.7-5.7c1.9-2.1,9.9-5.8,13.7-8.7c0.6-0.4,2.2-1.4,2.9-1.8
		c1,1.1,2.1,2.2,3.4,3.2C531.5,73.4,529.8,74.4,528.1,76.4L528.1,76.4z M453.6,63.2c4.3,0.7,9.4-0.3,13.1-3.6
		c4.5,7.2,4.6,13.8,9,18.3c-5.5-5.3-10.3-5.2-18.2-9.5c-1.4-0.7-3.4-2.1-4-2.3l0,0c0.1-0.7,0.1-1.4,0.1-2.1
		C453.6,63.6,453.6,63.4,453.6,63.2L453.6,63.2z M487.1,71.2l0.1,0.2c0,0-2.4-3.6-2.7-4.1c-0.8-1.3-1.9-2.5-3.1-4
		c-1.9-2.3-3.5-4.1-4.8-5.5c3.1-0.8,6.7-2.6,10.6-6.2c0.4,0.3,0.8,0.5,1.2,0.8c-0.2,1.2-0.4,2.4-0.6,3.2c-0.9,4.9-1,8.6-1,10.2
		C486.9,67.4,487,69.8,487.1,71.2L487.1,71.2z M480.2,66.7c1.9,2.5,3.6,5.4,4,6.1c-1.6,0.6-4.4,2-6.1,3.1c-3.1-3.2-5.4-12.7-7-15.3
		c-0.6-1-1-1.6-1.3-2.2c1.1,0.4,2.7,0.3,3.7,0.3C473.9,59.2,476.6,61.8,480.2,66.7L480.2,66.7z M494.5,73.8
		c15.1,0,26.9,11.8,26.9,26.9c0,1-0.1,2.5-0.3,4c-1.6,0.5-3.2,1-4.8,1.8c-7.8-4.5-18.4-4.3-25.8-0.1c-4.6-3.6-14.8-3.9-22.5-2.1
		c-0.2-1.5-0.4-2.9-0.4-3.6C467.6,85.9,479.6,73.8,494.5,73.8L494.5,73.8z M490.6,63.6c0.3-5,1.2-8.4,1.4-9c1.1,0.5,2.3,0.9,3.6,1.3
		c1,2.1,2.6,10.4,1.9,15.4c-2.3-0.2-4.9-0.2-6.5,0C490.5,70.3,490.4,66.3,490.6,63.6L490.6,63.6z M514.4,64.1
		c-1.5,3.3-0.7,7.5-4.6,11.3c-0.5-0.4-4.5-2.3-5.9-2.9c0.6-5.2,5.4-11.7,8.6-14.3c1,1.1,2.3,2.1,3.6,2.8
		C515.7,61.6,515.1,62.7,514.4,64.1L514.4,64.1z M518.5,63.1c0.1-0.2,0.3-0.5,0.4-0.8c2.9,1,6.1,1.2,9.2,0.9c0.3,1,0.8,2.1,1.4,3.2
		c0,0,0,0-0.1,0c-1.5,0.7-6.2,3.9-13,7.7c-1.8,1-2.9,1.9-3.5,2.6c0.8-1,1.7-2.4,2.2-3.8C516.4,69.8,516.1,67.3,518.5,63.1
		L518.5,63.1z M502,67c-0.7,1.9-1,2.9-1.3,3.9c0.6-4-0.5-9.9-1.7-15c3.5,0.1,7.1-0.8,10.6-2.8c0.3,0.8,0.6,1.5,1,2.2
		C508.6,57.1,503.9,62.3,502,67L502,67z M446.9,71.1c-4,3.2-10.7,3.5-14.8,2c-0.5-0.2-1.1-0.1-1.6,0.2c-2.7,2-5.7,2.2-8.2,0.5
		s-3.7-4.7-3-7.4c1-3.8,5.5-6.4,12.5-7.1c0.7-0.1,1.3-0.6,1.5-1.3c1.3-6.4,5.4-7.3,9.4-8.3l1.7-0.4c0.8-0.2,1.3-1,1.2-1.8
		c-0.1-1.2,0.9-5.3,4.3-7.9c3.9-3,9.9-3.1,17.1-0.2c0.4,0.2,0.9,0.2,1.3,0s0.7-0.5,0.9-1c1.8-5.3,5.4-8.9,10.1-10.4
		c4.9-1.5,10.2-0.4,14.7,2.9c0.6,0.4,1.3,0.4,1.9,0.1c4.4-2.9,9.7-3.8,14.4-2.5c5.3,1.4,9.8,5.4,13,11.5c0.4,0.7,1.2,1.1,2,0.8
		c5-1.7,9-1.7,11.7-0.1c2.5,1.5,3.4,4.3,3.7,6.3c0.1,0.5,0.3,0.9,0.8,1.2c0.4,0.3,0.9,0.3,1.4,0.2c5.3-1.8,10.5-1.5,14.1,0.7
		c2.4,1.4,3.8,3.6,4.2,6.2c0.1,0.8,0.8,1.3,1.5,1.4c4.6,0.3,7.9,2.3,8.9,5.6c1,2.9,0,6.3-2.5,8.4c-3.5,2.9-9,2.7-15.1-0.5
		c-0.5-0.3-1-0.3-1.5,0c-4.8,2.4-9.3,2.6-13.4,0.5c-4.8-2.5-7.6-7.4-8-9.9c-0.1-0.4-0.3-0.8-0.6-1.1c-0.4-0.3-0.8-0.4-1.2-0.3
		c-3.4,0.5-14.6,1.5-17-9.3c-0.1-0.5-0.5-1-1-1.2s-1.1,0.2-1.5,0.5c-7.3,4.9-14.5,4.5-21.4-1c-0.7-0.5-1.6-0.6-2.2,0
		c-7.9,8-14.3,7.4-17.5,6.1c-0.7-0.3-1.6-0.1-2,0.6c-3.1,4.8-9.6,5.8-14.2,4.4c-0.5-0.2-1.1-0.2-1.6,0.1c-0.4,0.4-0.6,0.9-0.6,1.5
		C451,65.3,449.8,68.8,446.9,71.1L446.9,71.1z M450.7,72.6c0.7-1,1.6-2.7,2-4c0.4,0.3,0.8,0.5,0.9,0.6s2.7,1.8,4.3,2.5
		c6.8,3.2,11.1,4,15.7,7.8c-1.7,1.8-3.4,4-4.5,5.9C459.4,82.7,451.8,74,450.7,72.6L450.7,72.6z M455.8,94.4c-1-0.3-6.5-2.4-9.8-2.1
		c-6.8,0.5-15.4-1.6-19.7-3.3c-1.1-0.4-10.4-1.2-1.3-1.2c3,0,6.7-0.8,12.7,0c3.5,0.5,9.6,1.1,18.8,0.4c4.5-0.4,8,1.1,9.7,2.8
		c-0.5,1.4-1,4.6-1.2,5.7C462.6,96.7,458.2,95.3,455.8,94.4L455.8,94.4z M432.8,119.1c-4.1-2.9-6.9-8.4-9.8-7.5
		c-1.2,0.4-1.3,2.5,0.3,2.6c1.1,0,3.2,3,4.3,4.3c-0.3,1.6-4.4,3.3-8.7,0.7c-1.9-1.1-5-5.2-2.3-9.8c1.5-2.5,5.6-3.9,10.5-3.8
		c9.6,0.2,12.3,11.1,14.5,13.1C441.6,119.8,436.5,121.7,432.8,119.1L432.8,119.1z M446.7,118.9c-3.6-1.6-6.5-9.9-7.5-11
		c-0.4-0.4,6.4-2.9,13.3-2.3c11.8,1,11.8,8.3,14.7,12C468.3,118.9,457.6,122,446.7,118.9L446.7,118.9z M485.3,119.7
		c-1.1-0.7-4.5-4.9-5.7-6.4c-1.2-1.4-3.4-2.8-4.3-1.4c-0.6,0.8,0,1.7,1,2.3c1.1,0.6,3.9,4.3,4.3,5c-0.2,1.1-5.5,3-8.6-0.7
		c-1.6-2-4.7-7.8-6.6-10.2c6.7-2.4,14.7-3.3,20.4-0.6c5.4,2.6,6.4,8.4,8.5,11.3C494.9,120.7,488.6,121.9,485.3,119.7L485.3,119.7z
		 M500.1,119.5c-3.6-1.6-6.5-9.9-7.5-11c-0.4-0.4,6.4-2.9,13.3-2.3c11.8,1,11.8,8.3,14.7,12C521.7,119.5,511.1,122.6,500.1,119.5
		L500.1,119.5z M559.1,105.8c11.8,1,14.6,8.8,13.4,11.3c-1,2.2-8.3,5.1-19.2,2c-3.6-1.6-6.5-9.9-7.5-11
		C545.4,107.7,552.2,105.2,559.1,105.8L559.1,105.8z M539.1,107.7c5.4,2.6,6.7,8.4,8.5,11.3c0.5,1.9-6.1,2.5-9.1,0.9
		c-1.2-0.7-4.5-4.9-5.6-6.4c-1.2-1.4-3.1-2.4-4-1.1c-0.6,0.8,0.1,1.7,1.2,2.3c1.3,0.7,3.4,3.9,3.8,4.6c-0.2,1.1-4.9,2.6-8.3-0.8
		c-1.8-1.8-4.9-7.9-6.1-10.3C526.2,105.7,533.4,105,539.1,107.7L539.1,107.7z M570.7,87.1c-3.4,0.7-7.6,1.7-12.7,3.6
		c-6.7,2.6-20,3.3-25.4,3.3c-5.2-0.1-6.9,2.2-8.8,1.9c-0.1-2.8-1.8-6.9-1.8-6.9c1.5-0.8,6.4-2.5,10.7-2.3c5.7,0.2,16.2,0.7,21.6-0.2
		C557,86,566.6,86,568.1,86c1.1,0,2.8,0.2,3.3,0.3C573.7,86.6,571.9,86.9,570.7,87.1L570.7,87.1z"/>
	<g>
		<path class="st3" d="M432.6,64.2c-2.9,0-5.2,0.1-7.2,2.3c-2.2,2.3-1.6,3.6-2,4.1c-0.6,0.6-2.1-0.4-2-1.6c0.1-5.5,6.8-7.7,10.7-7.2
			C433.5,61.8,433.9,64.2,432.6,64.2"/>
	</g>
	<path class="st3" d="M444.3,54.9c-4.2,0.5-5.4,2.5-6.2,4.9c-0.3,0.9-2.7,0.3-2.3-1.5c1.1-5.2,6.7-6.5,8.8-6
		C445.2,52.4,445,54.9,444.3,54.9"/>
	<g>
		<path class="st3" d="M462.6,43.7c-7.5-2.9-11.2,2.7-12.4,7.2c-0.2,0.6-2.7,0.4-2.3-1.5c0.9-4.6,5.3-11.2,15.6-8.6
			C464.7,41,463.9,44.2,462.6,43.7"/>
	</g>
	<path class="st3" d="M490.5,36.3c-6.9-4.7-12.3-0.9-15.1,2.5c-1.4,1.6-2.8-1.1-2.2-2c2.5-3.9,11-9.9,18.5-3.3
		C492.5,34.2,491.5,36.9,490.5,36.3"/>
	<g>
		<path class="st3" d="M518.8,42.7c-0.6,0.4-0.9-0.5-1.3-1.1c-6.1-9.7-17.2-7.1-20.2-2.6c-0.6,0.9-2.2-1.6-1.4-2.8
			c2.7-4.4,16.8-8.5,24,3.9C520.6,41.4,519.6,42.1,518.8,42.7"/>
	</g>
	<path class="st3" d="M536,48.8c-1.7-4.5-5-4.3-8.9-3.1c-1.8,0.6-1.4-2.4-0.8-2.6c3.7-1.3,10.1-1.9,11.8,4.3
		C538.6,49.2,536.5,50,536,48.8"/>
	<g>
		<path class="st3" d="M556.2,58.5c-3.1-5.7-8.1-5.7-12.3-4.1c-0.9,0.4-1.8-2-0.3-2.9c4-2.3,12.2-1.9,14.8,5.5
			C558.9,58.3,557.2,60.4,556.2,58.5"/>
	</g>
	<path class="st3" d="M569.1,67.5c-0.2,1-2.6,1-2.5,0c0.4-4.7-1.9-5-5-5c-1.2,0-1.1-2.5-0.2-2.7C565.5,58.9,570.5,61.9,569.1,67.5"
		/>
	<g>
		<path class="st3" d="M488.6,91.5c-0.1,1.7-1.5,3.1-3.3,3c-1.7-0.1-3-1.6-3-3.3v-0.3c-0.3-0.4-1.7-0.9-3.8,0.4
			c-1,0.6-2.2,0.2-0.4-1.4c1.9-1.7,3.8-2.7,5.4-2.9h0.1c2.7-0.2,6.3,0.4,7.9,1c0.7,0.3,0,3.7-0.2,3.6c-0.6-0.1-1.8-0.6-2.8-0.4
			L488.6,91.5"/>
	</g>
	<path class="st3" d="M497.6,100.9c-0.6,1.6-6.2,2.1-7.2,0c-0.4-0.8-1-2.9-0.2-2.5c1.3,0.7,5.8,0.2,6.7,0c0.8-0.2,0.3-1.3,0.7-1.1
		C498.1,97.5,498.1,99.4,497.6,100.9"/>
	<g>
		<path class="st3" d="M510.8,92.1c-1.4-1.2-3.3-1.7-4-1.2v0.2c0.1,1.7-1.1,3.2-2.8,3.4c-1.7,0.2-3.2-1.1-3.4-2.8v-0.1
			c-1.1-0.4-2.9,0.3-3.2,0.2c-0.1-0.1-0.9-3.2,0.1-3.6c2.7-1.1,11.4-1.6,13.9,3.2C511.8,91.9,511.6,92.7,510.8,92.1"/>
	</g>
	<path class="st3" d="M508.6,138.9h64.6v58.6h-64.6V138.9L508.6,138.9z M415.8,138.9h64.6v58.6h-64.6V138.9L415.8,138.9z
		 M480.4,302.1c-16.6-4.9-32.8-11.4-43.1-21.1c-3.7-3.4-6.8-7.1-9.4-11.1h16.5v2.3h7.7v-2.3h18.5v-31.3h-4v-5.7
		c-4,1-10.6-1.2-13.5-1.2c-3.2,0-4.9,1.4-4.9,1.4s-1.7-1.4-4.9-1.4c-2.9,0-9.5,2.2-13.5,1.2v5.7h-4v28c-6.3-11-9.3-24.2-10-40.4
		l-0.1-2.5h64.6L480.4,302.1L480.4,302.1z M433.1,263.5v-26.9c2.3,0.4,6.2-1.2,10.3-1.3c2.2-0.1,2.8,1.2,2.8,1.2v27.2
		c0,0-2.3-1.6-7.6-0.1C434.6,264.6,433.1,263.5,433.1,263.5L433.1,263.5z M450.3,263.6v-27.2c0,0,0.6-1.2,2.8-1.2
		c4,0.1,8,1.7,10.3,1.3v26.9c0,0-1.5,1.1-5.5,0C452.6,262,450.3,263.6,450.3,263.6L450.3,263.6z M505.2,303.2l-10.8,2.7l-10.6-2.8
		V220h-68v-19h68v-62.2h21.4V201h67.9v19.1h-67.9L505.2,303.2L505.2,303.2z M563.6,266.9v-28.3h-4v-5.7c-4,1-10.6-1.2-13.5-1.2
		c-3.2,0-4.9,1.4-4.9,1.4s-1.6-1.4-4.9-1.4c-2.9,0-9.5,2.2-13.5,1.2v5.7h-4v31.3h18.5v2.3h7.7v-2.3h16.7c-2.7,4-5.9,7.7-9.8,11.3
		c-10.9,10-27.1,16.3-43.4,21v-78.5h64.7l0.1,2.6C572.3,244,569.5,256.6,563.6,266.9L563.6,266.9z M556.3,236.6v26.9
		c0,0-1.5,1.1-5.5,0c-5.2-1.5-7.5,0.1-7.5,0.1v-27.2c0,0,0.6-1.2,2.8-1.2C550.1,235.4,554,237,556.3,236.6L556.3,236.6z
		 M539.2,236.4v27.2c0,0-2.3-1.6-7.6-0.1c-4,1.2-5.5,0-5.5,0v-26.9c2.3,0.4,6.2-1.2,10.3-1.3C538.6,235.2,539.2,236.4,539.2,236.4
		L539.2,236.4z M411.8,134.9v86.7c0,28.7,7.2,48.5,22.5,62.4c15.2,13.8,38,20.9,60.2,26.1c22.9-5.4,44.9-12.1,60.2-26.1
		c15.3-13.9,22.4-33.8,22.4-62.4v-86.7L411.8,134.9L411.8,134.9z"/>
	<g>
		<path class="st3" d="M466.6,154.2v-5.7c-4,1-10.6-1.2-13.5-1.2c-3.2,0-4.9,1.4-4.9,1.4s-1.7-1.4-4.9-1.4c-2.9,0-9.5,2.2-13.5,1.2
			v5.7h-3.9v31.3h18.5v2.3h7.7v-2.3h18.5v-31.3H466.6L466.6,154.2z M446.2,179.2c0,0-2.3-1.6-7.5-0.1c-4,1.1-5.5,0-5.5,0v-26.9
			c2.3,0.4,6.2-1.2,10.3-1.3c2.2-0.1,2.8,1.2,2.8,1.2L446.2,179.2L446.2,179.2z M463.3,179.1c0,0-1.5,1.1-5.5,0
			c-5.2-1.5-7.6,0.1-7.6,0.1V152c0,0,0.6-1.2,2.8-1.2c4,0.1,8,1.7,10.3,1.3L463.3,179.1L463.3,179.1z"/>
	</g>
	<path class="st3" d="M559.6,154.2v-5.7c-4,1-10.6-1.2-13.5-1.2c-3.2,0-4.9,1.4-4.9,1.4s-1.6-1.4-4.9-1.4c-2.9,0-9.5,2.2-13.5,1.2
		v5.7h-3.9v31.3h18.5v2.3h7.7v-2.3h18.5v-31.3H559.6L559.6,154.2z M538.7,179.2c0,0-2.3-1.6-7.5-0.1c-4,1.1-5.5,0-5.5,0v-26.9
		c2.3,0.4,6.3-1.2,10.3-1.3c2.2-0.1,2.8,1.2,2.8,1.2L538.7,179.2L538.7,179.2z M555.8,179.1c0,0-1.5,1.1-5.5,0
		c-5.2-1.5-7.6,0.1-7.6,0.1V152c0,0,0.6-1.2,2.8-1.2c4,0.1,8,1.7,10.3,1.3V179.1L555.8,179.1z"/>
	<g>
		<path class="st1" d="M508.6,302.2c16.3-4.7,32.4-11,43.4-21c3.9-3.5,7.1-7.2,9.8-11.3h-16.7v2.3h-7.7v-2.3h-18.5v-31.3h4v-5.7
			c4,1,10.6-1.2,13.5-1.2c3.3,0,4.9,1.4,4.9,1.4s1.7-1.4,4.9-1.4c2.9,0,9.5,2.2,13.5,1.2v5.7h4v28.3c5.9-10.3,8.8-22.9,9.7-40.6
			l-0.1-2.6h-64.7L508.6,302.2L508.6,302.2z"/>
	</g>
	<path class="st1" d="M415.9,226.2c0.6,16.2,3.7,29.4,10,40.4v-28h4v-5.7c4,1,10.6-1.2,13.5-1.2c3.3,0,4.9,1.4,4.9,1.4
		s1.7-1.4,4.9-1.4c2.9,0,9.5,2.2,13.5,1.2v5.7h4v31.3h-18.5v2.3h-7.7v-2.3H428c2.6,4,5.8,7.7,9.4,11.1c10.3,9.7,26.5,16.2,43.1,21.1
		v-78.4h-64.6L415.9,226.2L415.9,226.2z"/>
	<g>
		<path class="st1" d="M446.2,263.6v-27.2c0,0-0.6-1.2-2.8-1.2c-4,0.1-8,1.7-10.3,1.3v26.9c0,0,1.5,1.1,5.5,0
			C443.8,262,446.2,263.6,446.2,263.6L446.2,263.6z"/>
	</g>
	<path class="st1" d="M426.2,88.9c4.3,1.7,12.9,3.8,19.7,3.3c3.3-0.2,8.9,1.8,9.8,2.1c2.4,0.9,6.9,2.3,9.2,2.2
		c0.1-1.1,0.7-4.3,1.2-5.7c-1.7-1.7-5.2-3.2-9.7-2.8c-9.3,0.7-15.3,0.1-18.8-0.4c-6-0.9-9.7,0-12.7,0
		C415.8,87.7,425.2,88.5,426.2,88.9L426.2,88.9z"/>
	<g>
		<path class="st1" d="M443.4,150.8c-4,0.1-8,1.7-10.3,1.3V179c0,0,1.5,1.1,5.5,0c5.2-1.5,7.5,0.1,7.5,0.1V152
			C446.2,152,445.6,150.8,443.4,150.8L443.4,150.8z"/>
	</g>
	<path class="st1" d="M545.5,150.8c-2.2-0.1-2.8,1.2-2.8,1.2v27.2c0,0,2.3-1.6,7.6-0.1c4,1.1,5.5,0,5.5,0v-26.9
		C553.5,152.5,549.6,150.9,545.5,150.8L545.5,150.8z"/>
	<g>
		<path class="st1" d="M573.2,138.9h-64.6v58.6h64.6V138.9L573.2,138.9z M563.6,185.5h-18.5v2.3h-7.7v-2.3h-18.5v-31.3h3.9v-5.7
			c4,1,10.6-1.2,13.5-1.2c3.3,0,4.9,1.4,4.9,1.4s1.7-1.4,4.9-1.4c2.9,0,9.5,2.2,13.5,1.2v5.7h3.9L563.6,185.5L563.6,185.5z"/>
	</g>
	<path class="st1" d="M543.3,236.4v27.2c0,0,2.3-1.6,7.5-0.1c4,1.2,5.5,0,5.5,0v-26.9c-2.3,0.4-6.2-1.2-10.3-1.3
		C543.9,235.2,543.3,236.4,543.3,236.4L543.3,236.4z"/>
	<g>
		<path class="st1" d="M526.1,236.6v26.9c0,0,1.5,1.1,5.5,0c5.2-1.5,7.6,0.1,7.6,0.1v-27.2c0,0-0.6-1.2-2.8-1.2
			C532.4,235.4,528.4,237,526.1,236.6L526.1,236.6z"/>
	</g>
	<path class="st1" d="M535.9,150.8c-4,0.1-8,1.7-10.3,1.3V179c0,0,1.5,1.1,5.5,0c5.2-1.5,7.5,0.1,7.5,0.1V152
		C538.7,152,538.1,150.8,535.9,150.8L535.9,150.8z"/>
	<g>
		<path class="st1" d="M473.6,79.6c-4.6-3.8-8.9-4.6-15.7-7.8c-1.5-0.7-4.1-2.5-4.3-2.5c-0.2-0.1-0.5-0.3-0.9-0.6
			c-0.4,1.3-1.2,3-2,4c1.1,1.4,8.7,10.1,18.4,12.8C470.2,83.6,471.9,81.4,473.6,79.6L473.6,79.6z"/>
	</g>
	<path class="st1" d="M469.9,58.5c0.3,0.5,0.7,1.2,1.3,2.2c1.5,2.5,3.9,12.1,7,15.3c1.6-1.1,4.5-2.5,6.1-3.1c-0.4-0.6-2.1-3.6-4-6.1
		c-3.7-4.9-6.3-7.5-6.6-7.9C472.6,58.8,470.9,58.9,469.9,58.5L469.9,58.5z"/>
	<g>
		<path class="st1" d="M468,104.3c7.7-1.8,18-1.5,22.5,2.1c7.4-4.2,18-4.5,25.8,0.1c1.5-0.8,3.2-1.3,4.8-1.8c0.2-1.4,0.3-3,0.3-4
			c0-15.1-11.8-26.9-26.9-26.9c-14.8,0-26.9,12-26.9,26.9C467.6,101.4,467.8,102.8,468,104.3L468,104.3z M497.6,88.1
			c2.7-1.1,11.4-1.6,13.9,3.2c0.3,0.6,0.1,1.4-0.6,0.8c-1.4-1.2-3.3-1.7-4-1.2v0.2c0.1,1.7-1.1,3.2-2.8,3.4
			c-1.7,0.2-3.2-1.1-3.4-2.8v-0.1c-1.1-0.4-2.9,0.3-3.2,0.2C497.3,91.7,496.6,88.5,497.6,88.1L497.6,88.1z M496.8,98.4
			c0.8-0.2,0.3-1.3,0.7-1.1c0.6,0.2,0.6,2.1,0.1,3.6c-0.6,1.6-6.2,2.1-7.2,0c-0.4-0.8-1-2.9-0.2-2.5
			C491.4,99.2,495.9,98.6,496.8,98.4L496.8,98.4z M478.2,89.9c1.9-1.7,3.8-2.7,5.4-2.9h0.1c2.7-0.2,6.3,0.4,7.9,1
			c0.7,0.3,0,3.7-0.2,3.6c-0.6-0.1-1.8-0.6-2.8-0.4v0.2c-0.1,1.7-1.5,3.1-3.3,3c-1.7-0.1-3-1.6-3-3.3v-0.3c-0.3-0.4-1.7-0.9-3.8,0.4
			C477.6,91.9,476.4,91.5,478.2,89.9L478.2,89.9z"/>
	</g>
	<path class="st1" d="M485.8,107.5c-5.7-2.7-13.7-1.8-20.4,0.6c1.9,2.5,5,8.3,6.6,10.2c3.1,3.8,8.4,1.9,8.6,0.7
		c-0.4-0.7-3.2-4.4-4.3-5c-1-0.6-1.6-1.5-1-2.3c0.9-1.3,3.1,0,4.3,1.4c1.2,1.5,4.6,5.7,5.7,6.4c3.3,2.2,9.6,1.1,9.1-0.9
		C492.2,115.9,491.3,110.1,485.8,107.5L485.8,107.5z"/>
	<g>
		<path class="st1" d="M427.1,105.6c-4.9-0.1-9.1,1.3-10.5,3.8c-2.7,4.7,0.5,8.7,2.3,9.8c4.3,2.6,8.4,0.9,8.7-0.7
			c-1.2-1.3-3.2-4.3-4.3-4.3c-1.6,0-1.5-2.2-0.3-2.6c2.9-0.9,5.7,4.5,9.8,7.5c3.7,2.6,8.8,0.7,8.8-0.4
			C439.4,116.6,436.7,105.8,427.1,105.6L427.1,105.6z"/>
	</g>
	<path class="st1" d="M497.5,71.2c0.7-5-0.9-13.3-1.9-15.4c-1.2-0.3-2.5-0.8-3.6-1.3c-0.1,0.6-1.1,4-1.4,9c-0.2,2.7-0.1,6.7,0.4,7.6
		C492.6,71.1,495.2,71,497.5,71.2L497.5,71.2z"/>
	<g>
		<path class="st1" d="M512.5,58.2c-3.2,2.7-8,9.2-8.6,14.3c1.5,0.6,5.4,2.5,5.9,2.9c3.9-3.8,3.1-8.1,4.6-11.3
			c0.7-1.4,1.3-2.5,1.7-3.2C514.8,60.3,513.5,59.3,512.5,58.2L512.5,58.2z"/>
	</g>
	<path class="st1" d="M525.6,118.4c3.4,3.5,8.1,2,8.3,0.8c-0.4-0.7-2.5-3.9-3.8-4.6c-1-0.6-1.7-1.5-1.2-2.3c0.9-1.3,2.8-0.4,4,1.1
		s4.5,5.8,5.6,6.4c3,1.7,9.6,1.1,9.1-0.9c-1.8-2.9-3.1-8.7-8.5-11.3c-5.7-2.7-12.9-2-19.6,0.4C520.7,110.5,523.8,116.7,525.6,118.4
		L525.6,118.4z"/>
	<g>
		<path class="st1" d="M523.8,95.9c1.8,0.3,3.6-2,8.8-1.9c5.4,0.1,18.7-0.6,25.4-3.3c5-1.9,9.2-2.9,12.7-3.6c1.1-0.2,3-0.5,0.7-0.8
			c-0.5-0.1-2.2-0.3-3.3-0.3c-1.5,0-11.1,0.1-13.7,0.5c-5.4,0.8-15.8,0.4-21.6,0.2c-4.3-0.2-9.2,1.5-10.7,2.3
			C522.1,89,523.7,93.1,523.8,95.9L523.8,95.9z"/>
	</g>
	<path class="st1" d="M450.9,59.4c0.4-0.4,1-0.3,1.6-0.1c4.6,1.5,11.1,0.5,14.2-4.4c0.4-0.7,1.3-0.9,2-0.6c3.2,1.3,9.6,1.9,17.5-6.1
		c0.6-0.6,1.5-0.5,2.2,0c6.9,5.5,14.1,5.9,21.4,1c0.5-0.3,1-0.7,1.5-0.5s0.9,0.6,1,1.2c2.3,10.8,13.6,9.8,17,9.3
		c0.4-0.1,0.9,0,1.2,0.3c0.4,0.3,0.6,0.7,0.6,1.1c0.4,2.5,3.2,7.4,8,9.9c4.1,2.1,8.6,2,13.4-0.5c0.5-0.2,1-0.2,1.5,0
		c6.1,3.3,11.6,3.5,15.1,0.5c2.4-2.1,3.4-5.4,2.5-8.4c-1.1-3.3-4.3-5.3-8.9-5.6c-0.8,0-1.4-0.6-1.5-1.4c-0.4-2.6-1.9-4.8-4.2-6.2
		c-3.6-2.2-8.9-2.4-14.1-0.7c-0.5,0.2-1,0.1-1.4-0.2s-0.7-0.7-0.8-1.2c-0.3-2-1.2-4.8-3.7-6.3c-2.7-1.6-6.7-1.6-11.7,0.1
		c-0.8,0.3-1.6-0.1-2-0.8c-3.2-6.1-7.7-10.1-13-11.5c-4.7-1.3-10-0.3-14.4,2.5c-0.6,0.4-1.3,0.3-1.9-0.1c-4.5-3.4-9.8-4.4-14.7-2.9
		c-4.7,1.4-8.3,5.1-10.1,10.4c-0.2,0.4-0.5,0.8-0.9,1s-0.9,0.2-1.3,0c-7.2-2.9-13.1-2.8-17.1,0.2c-3.4,2.6-4.4,6.7-4.3,7.9
		c0.1,0.8-0.4,1.6-1.2,1.8l-1.7,0.4c-4,0.9-8.2,1.9-9.4,8.3c-0.1,0.7-0.7,1.2-1.5,1.3c-7,0.7-11.5,3.3-12.5,7.1
		c-0.7,2.7,0.6,5.7,3,7.4c2.5,1.7,5.5,1.5,8.2-0.5c0.5-0.3,1-0.4,1.6-0.2c4.1,1.6,10.7,1.3,14.8-2c2.9-2.3,4.1-5.8,3.4-10.3
		C450.2,60.3,450.4,59.7,450.9,59.4L450.9,59.4z M561.4,59.8c4.1-1,9.1,2.1,7.7,7.6c-0.2,1-2.6,1-2.5,0c0.4-4.7-1.9-5-5-5
		C560.4,62.5,560.5,60,561.4,59.8L561.4,59.8z M543.6,51.6c4-2.3,12.2-1.9,14.8,5.5c0.4,1.2-1.2,3.4-2.2,1.5
		c-3.1-5.7-8.1-5.7-12.3-4.1C543,54.8,542.2,52.4,543.6,51.6L543.6,51.6z M526.3,43.1c3.7-1.3,10.1-1.9,11.8,4.3
		c0.5,1.7-1.7,2.6-2.1,1.4c-1.7-4.5-5-4.3-8.9-3.1C525.3,46.3,525.8,43.3,526.3,43.1L526.3,43.1z M495.8,36.1
		c2.7-4.4,16.8-8.5,24,3.9c0.8,1.3-0.3,2.1-1.1,2.7c-0.6,0.4-0.9-0.5-1.3-1.1c-6.1-9.7-17.2-7.1-20.2-2.6
		C496.7,39.8,495,37.4,495.8,36.1L495.8,36.1z M473.1,36.8c2.5-3.9,11-9.9,18.5-3.3c0.8,0.7-0.2,3.5-1.1,2.8
		c-6.9-4.7-12.3-0.9-15.1,2.5C474,40.4,472.6,37.7,473.1,36.8L473.1,36.8z M432.6,64.2c-2.9,0-5.2,0.1-7.2,2.3
		c-2.2,2.3-1.6,3.6-2,4.1c-0.6,0.6-2.1-0.4-2-1.6c0.1-5.5,6.8-7.7,10.7-7.2C433.5,61.8,433.9,64.2,432.6,64.2L432.6,64.2z
		 M444.3,54.9c-4.2,0.5-5.4,2.5-6.2,4.9c-0.3,0.9-2.7,0.3-2.3-1.5c1.1-5.2,6.7-6.5,8.8-6C445.2,52.4,445,54.9,444.3,54.9L444.3,54.9
		z M447.9,49.3c0.9-4.6,5.3-11.2,15.6-8.6c1.3,0.3,0.5,3.5-0.8,3c-7.5-2.9-11.2,2.7-12.4,7.2C450,51.5,447.5,51.2,447.9,49.3
		L447.9,49.3z"/>
	<g>
		<path class="st1" d="M531.3,68.4c-0.7,0.4-2.3,1.4-2.9,1.8c-3.7,2.8-11.8,6.6-13.7,8.7c1.5,1.3,3.7,3.7,4.7,5.7
			c0.9,0,3.5-2.1,8.7-8.2c1.7-1.9,3.4-3,6.6-4.8C533.4,70.7,532.3,69.6,531.3,68.4L531.3,68.4z"/>
	</g>
	<path class="st1" d="M457.8,263.5c4,1.2,5.5,0,5.5,0v-26.9c-2.3,0.4-6.2-1.2-10.3-1.3c-2.2-0.1-2.8,1.2-2.8,1.2v27.2
		C450.3,263.6,452.6,262,457.8,263.5L457.8,263.5z"/>
	<g>
		<path class="st1" d="M480.4,138.9h-64.6v58.6h64.6V138.9L480.4,138.9z M470.6,185.5h-18.5v2.3h-7.7v-2.3h-18.5v-31.3h3.9v-5.7
			c4,1,10.6-1.2,13.5-1.2c3.3,0,4.9,1.4,4.9,1.4s1.7-1.4,4.9-1.4c2.9,0,9.5,2.2,13.5,1.2v5.7h3.9v31.3H470.6z"/>
	</g>
	<path class="st1" d="M453,150.8c-2.2-0.1-2.8,1.2-2.8,1.2v27.2c0,0,2.3-1.6,7.6-0.1c4,1.1,5.5,0,5.5,0v-26.9
		C461,152.5,457.1,150.9,453,150.8L453,150.8z"/>
</g>
</svg>
