<?xml version="1.0" encoding="utf-8"?>
<!-- Generator: Adobe Illustrator 24.2.1, SVG Export Plug-In . SVG Version: 6.00 Build 0)  -->
<svg version="1.1" id="Layer_1" xmlns="http://www.w3.org/2000/svg" xmlns:xlink="http://www.w3.org/1999/xlink" x="0px" y="0px"
	 viewBox="0 0 293 330.2" style="enable-background:new 0 0 293 330.2;" xml:space="preserve">
<style type="text/css">
	.st0{fill:none;}
	.st1{fill:#ED1B2E;}
	.st2{fill:#231F20;}
	.st3{fill:#FFFFFF;}
</style>
<g>
	<rect id="background_11_" y="-1.4" class="st0" width="293" height="328.8"/>
	<g>
		<polygon class="st1" points="134.1,303.2 144.9,305.9 155.5,303.2 155.5,220.1 223.6,220.1 223.6,201 155.5,201 155.5,138.9 
			134.1,138.9 134.1,201 66,201 66,220.1 134.1,220.1 		"/>
		<g>
			<path class="st1" d="M102.8,105.6c-6.9-0.6-13.7,1.9-13.3,2.3c1.1,1.1,3.9,9.4,7.5,11c10.9,3.1,21.6,0,20.5-1.3
				C114.6,114,114.6,106.6,102.8,105.6L102.8,105.6z"/>
		</g>
		<path class="st1" d="M156.2,106.2c-6.9-0.6-13.8,1.9-13.3,2.3c1.1,1.1,3.9,9.4,7.5,11c11,3.1,21.6,0,20.5-1.3
			C168,114.6,168,107.2,156.2,106.2L156.2,106.2z"/>
		<g>
			<path class="st1" d="M203.6,119.1c10.9,3.1,18.2,0.2,19.2-2c1.2-2.5-1.6-10.3-13.4-11.3c-6.9-0.6-13.7,1.9-13.3,2.3
				C197.1,109.2,200,117.5,203.6,119.1L203.6,119.1z"/>
		</g>
		<path class="st2" d="M230.7,84.6c-1-0.7-11.3-2-12.9-2c-1.6,0-10.5,0.1-13.9,0.6c-5.3,0.8-14.4,0.8-21.4,0
			c-2.5-0.3-5.3,0.3-7.5,1.1c0.4-0.4,0.9-0.8,1.5-1.4c2-2.1,4.3-6.1,8.4-8.1c1-0.5,2-1,2.9-1.5c3.4,1.7,8.8,2.9,15.5-0.3
			c10,5,15.9,1.6,18-0.2c2.6-2.2,4-5.4,4-8.6c0-1.1-0.2-2.3-0.5-3.3c-1.4-4.3-5.4-7-10.8-7.7c-0.3-1.2-0.8-2.2-1.4-3.2
			c0.6-0.8,1.2-1.6,1.6-2c0.5-0.6,2.1-3.3-2.3-1c-0.2,0.1-0.6,0.3-1.2,0.7c-0.6-0.6-1.3-1.2-2.1-1.6c-4.1-2.5-9.6-2.8-15.3-1.3
			c-0.8-3-2.3-5.6-4.7-7.1c-2.5-1.5-5.7-2-9.4-1.4c0.2-0.5,0.4-1,0.6-1.4c1.7-3.5,0.8-4.3-1-2.8c-2,1.7-3.2,3-4.1,4
			c-3.5-5.6-8.1-9.5-13.6-10.9c-4.7-1.3-9.9-0.6-14.5,1.6c-0.3-2.3-0.6-4.2-0.9-5.3c-0.9-2.8-1.9-0.6-2.1,0.3
			c-0.2,1.2-0.5,2.8-0.8,4.7c-4.6-2.5-9.7-3.2-14.5-1.7c-5.3,1.6-9.3,5.5-11.6,11c-1.9-0.7-3.6-1.1-5.3-1.4c-1-1.3-2.4-2.9-4.4-4.6
			c-1.3-1.2-2.5-0.6-1.7,1.8c0.3,0.9,0.6,1.7,0.8,2.5c-3.8,0.2-6.5,1.4-8.4,2.9c-3.7,2.8-5.1,6.9-5.4,9.4c-0.2,0.1-0.5,0.1-0.5,0.1
			c-3.1,0.7-7.2,1.9-9.8,5.9c-0.5-0.3-0.8-0.5-0.9-0.6c-7.7-5.1-4.2,1.5-1.2,4.4c-10.3,1.5-13.2,6.4-13.9,9.3
			c-0.2,0.7-0.3,1.5-0.3,2.3c0,3.3,1.7,6.7,4.7,8.7c3.4,2.3,7.6,2.2,11.3-0.2c4.8,1.6,11.7,1.3,16.6-2.3c2.8,3,5.1,5.2,6.3,6.4
			c3.1,3.1,7.6,5.4,9.9,6.3c-2.3-0.9-6.1-1.8-9.9-1.3c-8.2,1.1-13.7-0.3-17.2-0.7c-5.8-0.6-11.8,0.4-14.7,0.4
			c-3.1,0-7.6,1.5-9.7,1.8c-2.3,0.4-2.2,1.9,1.1,2.8c3.2,0.9,9.3,1.4,10.9,2.1c5.2,2.3,14,4.2,20.2,3.7c4.4-0.3,8.8,1.8,9.9,2.1
			c2.2,0.7,7.6,2.1,9.8,2.1c0-0.1,0,3.1,0.2,4.7c-0.8,0.3-1.6,0.6-2.4,0.9c-2.5-1.5-13.2-5.9-26.4-0.4c-2.8-1-8.6-4.2-16.7-1.5
			c-9.9,3.3-8.3,12.4-5,16.5c4.4,5.6,12.6,4.5,15,1.7c5.3,3.5,10.8,2.3,14.7-0.1c2.6,1.5,15.4,4.1,25.1,0.1c1.3,1,6.7,3.8,13.5,0.3
			c4,2.3,10.5,2.5,13.8-0.4c1.2,1,4.9,2.5,12.6,2.4c9.3-0.1,11.5-1.5,12.8-2.6c2,0.9,7.2,3.7,13.7,0.9c3.5,2.2,10.5,2.1,14.2-0.4
			c6.9,3.1,19.4,1.7,22.6-0.5c5.6-3.9,2.9-11.9-3.3-15.6c-12.2-6.1-23.5-1.4-26.5,0.2c-3.6-2.4-11.1-4-18.9-2.5c0.1-0.9,0-2,0-3.2
			c0-0.1,0-0.2,0-0.4c1.5-0.5,3.7-2.1,8.2-2.4c6.1-0.4,20.4-0.2,27.6-3.9c4.1-2.1,18.3-4.9,20.2-6C232.2,86.1,231.7,85.3,230.7,84.6
			L230.7,84.6z M178.4,76.4c-5.2,6.1-7.8,8.2-8.7,8.2c-1-2-3.2-4.3-4.7-5.7c1.9-2.1,9.9-5.8,13.7-8.7c0.6-0.4,2.2-1.4,2.9-1.8
			c1,1.1,2.1,2.2,3.4,3.2C181.8,73.4,180.1,74.4,178.4,76.4L178.4,76.4z M103.9,63.2c4.3,0.7,9.4-0.3,13.1-3.6
			c4.5,7.2,4.6,13.8,9,18.3c-5.5-5.3-10.3-5.2-18.2-9.5c-1.4-0.7-3.4-2.1-4-2.3l0,0c0.1-0.7,0.1-1.4,0.1-2.1
			C103.9,63.6,103.9,63.4,103.9,63.2L103.9,63.2z M137.4,71.2l0.1,0.2c0,0-2.4-3.6-2.7-4.1c-0.8-1.3-1.9-2.5-3.1-4
			c-1.9-2.3-3.5-4.1-4.8-5.5c3.1-0.8,6.7-2.6,10.6-6.2c0.4,0.3,0.8,0.5,1.2,0.8c-0.2,1.2-0.4,2.4-0.6,3.2c-0.9,4.9-1,8.6-1,10.2
			C137.2,67.4,137.3,69.8,137.4,71.2L137.4,71.2z M130.5,66.7c1.9,2.5,3.6,5.4,4,6.1c-1.6,0.6-4.4,2-6.1,3.1
			c-3.1-3.2-5.4-12.7-7-15.3c-0.6-1-1-1.6-1.3-2.2c1.1,0.4,2.7,0.3,3.7,0.3C124.2,59.2,126.9,61.8,130.5,66.7L130.5,66.7z
			 M144.8,73.8c15.1,0,26.9,11.8,26.9,26.9c0,1-0.1,2.5-0.3,4c-1.6,0.5-3.2,1-4.8,1.8c-7.8-4.5-18.4-4.3-25.8-0.1
			c-4.6-3.6-14.8-3.9-22.5-2.1c-0.2-1.5-0.4-2.9-0.4-3.6C117.9,85.9,129.9,73.8,144.8,73.8L144.8,73.8z M140.9,63.6
			c0.3-5,1.2-8.4,1.4-9c1.1,0.5,2.3,0.9,3.6,1.3c1,2.1,2.6,10.4,1.9,15.4c-2.3-0.2-4.9-0.2-6.5,0C140.8,70.3,140.7,66.3,140.9,63.6
			L140.9,63.6z M164.7,64.1c-1.5,3.3-0.7,7.5-4.6,11.3c-0.5-0.4-4.5-2.3-5.9-2.9c0.6-5.2,5.4-11.7,8.6-14.3c1,1.1,2.3,2.1,3.6,2.8
			C166,61.6,165.4,62.7,164.7,64.1L164.7,64.1z M168.8,63.1c0.1-0.2,0.3-0.5,0.4-0.8c2.9,1,6.1,1.2,9.2,0.9c0.3,1,0.8,2.1,1.4,3.2
			c0,0,0,0-0.1,0c-1.5,0.7-6.2,3.9-13,7.7c-1.8,1-2.9,1.9-3.5,2.6c0.8-1,1.7-2.4,2.2-3.8C166.7,69.8,166.4,67.3,168.8,63.1
			L168.8,63.1z M152.3,67c-0.7,1.9-1,2.9-1.3,3.9c0.6-4-0.5-9.9-1.7-15c3.5,0.1,7.1-0.8,10.6-2.8c0.3,0.8,0.6,1.5,1,2.2
			C158.9,57.1,154.2,62.3,152.3,67L152.3,67z M97.2,71.1c-4,3.2-10.7,3.5-14.8,2c-0.5-0.2-1.1-0.1-1.6,0.2c-2.7,2-5.7,2.2-8.2,0.5
			s-3.7-4.7-3-7.4c1-3.8,5.5-6.4,12.5-7.1c0.7-0.1,1.3-0.6,1.5-1.3c1.3-6.4,5.4-7.3,9.4-8.3l1.7-0.4c0.8-0.2,1.3-1,1.2-1.8
			c-0.1-1.2,0.9-5.3,4.3-7.9c3.9-3,9.9-3.1,17.1-0.2c0.4,0.2,0.9,0.2,1.3,0s0.7-0.5,0.9-1c1.8-5.3,5.4-8.9,10.1-10.4
			c4.9-1.5,10.2-0.4,14.7,2.9c0.6,0.4,1.3,0.4,1.9,0.1c4.4-2.9,9.7-3.8,14.4-2.5c5.3,1.4,9.8,5.4,13,11.5c0.4,0.7,1.2,1.1,2,0.8
			c5-1.7,9-1.7,11.7-0.1c2.5,1.5,3.4,4.3,3.7,6.3c0.1,0.5,0.3,0.9,0.8,1.2c0.4,0.3,0.9,0.3,1.4,0.2c5.3-1.8,10.5-1.5,14.1,0.7
			c2.4,1.4,3.8,3.6,4.2,6.2c0.1,0.8,0.8,1.3,1.5,1.4c4.6,0.3,7.9,2.3,8.9,5.6c1,2.9,0,6.3-2.5,8.4c-3.5,2.9-9,2.7-15.1-0.5
			c-0.5-0.3-1-0.3-1.5,0c-4.8,2.4-9.3,2.6-13.4,0.5c-4.8-2.5-7.6-7.4-8-9.9c-0.1-0.4-0.3-0.8-0.6-1.1c-0.4-0.3-0.8-0.4-1.2-0.3
			c-3.4,0.5-14.6,1.5-17-9.3c-0.1-0.5-0.5-1-1-1.2s-1.1,0.2-1.5,0.5c-7.3,4.9-14.5,4.5-21.4-1c-0.7-0.5-1.6-0.6-2.2,0
			c-7.9,8-14.3,7.4-17.5,6.1c-0.7-0.3-1.6-0.1-2,0.6c-3.1,4.8-9.6,5.8-14.2,4.4c-0.5-0.2-1.1-0.2-1.6,0.1c-0.4,0.4-0.6,0.9-0.6,1.5
			C101.3,65.3,100.1,68.8,97.2,71.1L97.2,71.1z M101,72.6c0.7-1,1.6-2.7,2-4c0.4,0.3,0.8,0.5,0.9,0.6s2.7,1.8,4.3,2.5
			c6.8,3.2,11.1,4,15.7,7.8c-1.7,1.8-3.4,4-4.5,5.9C109.7,82.7,102.1,74,101,72.6L101,72.6z M106.1,94.4c-1-0.3-6.5-2.4-9.8-2.1
			c-6.8,0.5-15.4-1.6-19.7-3.3c-1.1-0.4-10.4-1.2-1.3-1.2c3,0,6.7-0.8,12.7,0c3.5,0.5,9.6,1.1,18.8,0.4c4.5-0.4,8,1.1,9.7,2.8
			c-0.5,1.4-1,4.6-1.2,5.7C112.9,96.7,108.5,95.3,106.1,94.4L106.1,94.4z M83.1,119.1c-4.1-2.9-6.9-8.4-9.8-7.5
			c-1.2,0.4-1.3,2.5,0.3,2.6c1.1,0,3.2,3,4.3,4.3c-0.3,1.6-4.4,3.3-8.7,0.7c-1.9-1.1-5-5.2-2.3-9.8c1.5-2.5,5.6-3.9,10.5-3.8
			c9.6,0.2,12.3,11.1,14.5,13.1C91.9,119.8,86.8,121.7,83.1,119.1L83.1,119.1z M97,118.9c-3.6-1.6-6.5-9.9-7.5-11
			c-0.4-0.4,6.4-2.9,13.3-2.3c11.8,1,11.8,8.3,14.7,12C118.6,118.9,107.9,122,97,118.9L97,118.9z M135.6,119.7
			c-1.1-0.7-4.5-4.9-5.7-6.4c-1.2-1.4-3.4-2.8-4.3-1.4c-0.6,0.8,0,1.7,1,2.3c1.1,0.6,3.9,4.3,4.3,5c-0.2,1.1-5.5,3-8.6-0.7
			c-1.6-2-4.7-7.8-6.6-10.2c6.7-2.4,14.7-3.3,20.4-0.6c5.4,2.6,6.4,8.4,8.5,11.3C145.2,120.7,138.9,121.9,135.6,119.7L135.6,119.7z
			 M150.4,119.5c-3.6-1.6-6.5-9.9-7.5-11c-0.4-0.4,6.4-2.9,13.3-2.3c11.8,1,11.8,8.3,14.7,12C172,119.5,161.4,122.6,150.4,119.5
			L150.4,119.5z M209.4,105.8c11.8,1,14.6,8.8,13.4,11.3c-1,2.2-8.3,5.1-19.2,2c-3.6-1.6-6.5-9.9-7.5-11
			C195.7,107.7,202.5,105.2,209.4,105.8L209.4,105.8z M189.4,107.7c5.4,2.6,6.7,8.4,8.5,11.3c0.5,1.9-6.1,2.5-9.1,0.9
			c-1.2-0.7-4.5-4.9-5.6-6.4c-1.2-1.4-3.1-2.4-4-1.1c-0.6,0.8,0.1,1.7,1.2,2.3c1.3,0.7,3.4,3.9,3.8,4.6c-0.2,1.1-4.9,2.6-8.3-0.8
			c-1.8-1.8-4.9-7.9-6.1-10.3C176.5,105.7,183.7,105,189.4,107.7L189.4,107.7z M221,87.1c-3.4,0.7-7.6,1.7-12.7,3.6
			c-6.7,2.6-20,3.3-25.4,3.3c-5.2-0.1-6.9,2.2-8.8,1.9c-0.1-2.8-1.8-6.9-1.8-6.9c1.5-0.8,6.4-2.5,10.7-2.3
			c5.7,0.2,16.2,0.7,21.6-0.2c2.7-0.5,12.3-0.5,13.8-0.5c1.1,0,2.8,0.2,3.3,0.3C224,86.6,222.2,86.9,221,87.1L221,87.1z"/>
		<g>
			<path class="st2" d="M82.9,64.2c-2.9,0-5.2,0.1-7.2,2.3c-2.2,2.3-1.6,3.6-2,4.1c-0.6,0.6-2.1-0.4-2-1.6c0.1-5.5,6.8-7.7,10.7-7.2
				C83.8,61.8,84.2,64.2,82.9,64.2"/>
		</g>
		<path class="st2" d="M94.6,54.9c-4.2,0.5-5.4,2.5-6.2,4.9c-0.3,0.9-2.7,0.3-2.3-1.5c1.1-5.2,6.7-6.5,8.8-6
			C95.5,52.4,95.3,54.9,94.6,54.9"/>
		<g>
			<path class="st2" d="M112.9,43.7c-7.5-2.9-11.2,2.7-12.4,7.2c-0.2,0.6-2.7,0.4-2.3-1.5c0.9-4.6,5.3-11.2,15.6-8.6
				C115,41,114.2,44.2,112.9,43.7"/>
		</g>
		<path class="st2" d="M140.8,36.3c-6.9-4.7-12.3-0.9-15.1,2.5c-1.4,1.6-2.8-1.1-2.2-2c2.5-3.9,11-9.9,18.5-3.3
			C142.8,34.2,141.8,36.9,140.8,36.3"/>
		<g>
			<path class="st2" d="M169.1,42.7c-0.6,0.4-0.9-0.5-1.3-1.1c-6.1-9.7-17.2-7.1-20.2-2.6c-0.6,0.9-2.2-1.6-1.4-2.8
				c2.7-4.4,16.8-8.5,24,3.9C170.9,41.4,169.9,42.1,169.1,42.7"/>
		</g>
		<path class="st2" d="M186.3,48.8c-1.7-4.5-5-4.3-8.9-3.1c-1.8,0.6-1.4-2.4-0.8-2.6c3.7-1.3,10.1-1.9,11.8,4.3
			C188.9,49.2,186.8,50,186.3,48.8"/>
		<g>
			<path class="st2" d="M206.5,58.5c-3.1-5.7-8.1-5.7-12.3-4.1c-0.9,0.4-1.8-2-0.3-2.9c4-2.3,12.2-1.9,14.8,5.5
				C209.2,58.3,207.5,60.4,206.5,58.5"/>
		</g>
		<path class="st2" d="M219.4,67.5c-0.2,1-2.6,1-2.5,0c0.4-4.7-1.9-5-5-5c-1.2,0-1.1-2.5-0.2-2.7C215.8,58.9,220.8,61.9,219.4,67.5"
			/>
		<g>
			<path class="st2" d="M138.9,91.5c-0.1,1.7-1.5,3.1-3.3,3c-1.7-0.1-3-1.6-3-3.3v-0.3c-0.3-0.4-1.7-0.9-3.8,0.4
				c-1,0.6-2.2,0.2-0.4-1.4c1.9-1.7,3.8-2.7,5.4-2.9h0.1c2.7-0.2,6.3,0.4,7.9,1c0.7,0.3,0,3.7-0.2,3.6c-0.6-0.1-1.8-0.6-2.8-0.4
				L138.9,91.5"/>
		</g>
		<path class="st2" d="M147.9,100.9c-0.6,1.6-6.2,2.1-7.2,0c-0.4-0.8-1-2.9-0.2-2.5c1.3,0.7,5.8,0.2,6.7,0c0.8-0.2,0.3-1.3,0.7-1.1
			C148.4,97.5,148.4,99.4,147.9,100.9"/>
		<g>
			<path class="st2" d="M161.1,92.1c-1.4-1.2-3.3-1.7-4-1.2v0.2c0.1,1.7-1.1,3.2-2.8,3.4c-1.7,0.2-3.2-1.1-3.4-2.8v-0.1
				c-1.1-0.4-2.9,0.3-3.2,0.2c-0.1-0.1-0.9-3.2,0.1-3.6c2.7-1.1,11.4-1.6,13.9,3.2C162.1,91.9,161.9,92.7,161.1,92.1"/>
		</g>
		<path class="st2" d="M158.9,138.9h64.6v58.6h-64.6V138.9L158.9,138.9z M66.1,138.9h64.6v58.6H66.1V138.9L66.1,138.9z M130.7,302.1
			c-16.6-4.9-32.8-11.4-43.1-21.1c-3.7-3.4-6.8-7.1-9.4-11.1h16.5v2.3h7.7v-2.3h18.5v-31.3h-4v-5.7c-4,1-10.6-1.2-13.5-1.2
			c-3.2,0-4.9,1.4-4.9,1.4s-1.7-1.4-4.9-1.4c-2.9,0-9.5,2.2-13.5,1.2v5.7h-4v28c-6.3-11-9.3-24.2-10-40.4l-0.1-2.5h64.6L130.7,302.1
			L130.7,302.1z M83.4,263.5v-26.9c2.3,0.4,6.2-1.2,10.3-1.3c2.2-0.1,2.8,1.2,2.8,1.2v27.2c0,0-2.3-1.6-7.6-0.1
			C84.9,264.6,83.4,263.5,83.4,263.5L83.4,263.5z M100.6,263.6v-27.2c0,0,0.6-1.2,2.8-1.2c4,0.1,8,1.7,10.3,1.3v26.9
			c0,0-1.5,1.1-5.5,0C102.9,262,100.6,263.6,100.6,263.6L100.6,263.6z M155.5,303.2l-10.8,2.7l-10.6-2.8V220h-68v-19h68v-62.2h21.4
			V201h67.9v19.1h-67.9L155.5,303.2L155.5,303.2z M213.9,266.9v-28.3h-4v-5.7c-4,1-10.6-1.2-13.5-1.2c-3.2,0-4.9,1.4-4.9,1.4
			s-1.6-1.4-4.9-1.4c-2.9,0-9.5,2.2-13.5,1.2v5.7h-4v31.3h18.5v2.3h7.7v-2.3H212c-2.7,4-5.9,7.7-9.8,11.3
			c-10.9,10-27.1,16.3-43.4,21v-78.5h64.7l0.1,2.6C222.6,244,219.8,256.6,213.9,266.9L213.9,266.9z M206.6,236.6v26.9
			c0,0-1.5,1.1-5.5,0c-5.2-1.5-7.5,0.1-7.5,0.1v-27.2c0,0,0.6-1.2,2.8-1.2C200.4,235.4,204.3,237,206.6,236.6L206.6,236.6z
			 M189.5,236.4v27.2c0,0-2.3-1.6-7.6-0.1c-4,1.2-5.5,0-5.5,0v-26.9c2.3,0.4,6.2-1.2,10.3-1.3C188.9,235.2,189.5,236.4,189.5,236.4
			L189.5,236.4z M62.1,134.9v86.7c0,28.7,7.2,48.5,22.5,62.4c15.2,13.8,38,20.9,60.2,26.1c22.9-5.4,44.9-12.1,60.2-26.1
			c15.3-13.9,22.4-33.8,22.4-62.4v-86.7L62.1,134.9L62.1,134.9z"/>
		<g>
			<path class="st2" d="M116.9,154.2v-5.7c-4,1-10.6-1.2-13.5-1.2c-3.2,0-4.9,1.4-4.9,1.4s-1.7-1.4-4.9-1.4c-2.9,0-9.5,2.2-13.5,1.2
				v5.7h-3.9v31.3h18.5v2.3h7.7v-2.3h18.5v-31.3H116.9L116.9,154.2z M96.5,179.2c0,0-2.3-1.6-7.5-0.1c-4,1.1-5.5,0-5.5,0v-26.9
				c2.3,0.4,6.2-1.2,10.3-1.3c2.2-0.1,2.8,1.2,2.8,1.2L96.5,179.2L96.5,179.2z M113.6,179.1c0,0-1.5,1.1-5.5,0
				c-5.2-1.5-7.6,0.1-7.6,0.1V152c0,0,0.6-1.2,2.8-1.2c4,0.1,8,1.7,10.3,1.3L113.6,179.1L113.6,179.1z"/>
		</g>
		<path class="st2" d="M209.9,154.2v-5.7c-4,1-10.6-1.2-13.5-1.2c-3.2,0-4.9,1.4-4.9,1.4s-1.6-1.4-4.9-1.4c-2.9,0-9.5,2.2-13.5,1.2
			v5.7h-3.9v31.3h18.5v2.3h7.7v-2.3h18.5v-31.3H209.9L209.9,154.2z M189,179.2c0,0-2.3-1.6-7.5-0.1c-4,1.1-5.5,0-5.5,0v-26.9
			c2.3,0.4,6.3-1.2,10.3-1.3c2.2-0.1,2.8,1.2,2.8,1.2L189,179.2L189,179.2z M206.1,179.1c0,0-1.5,1.1-5.5,0
			c-5.2-1.5-7.6,0.1-7.6,0.1V152c0,0,0.6-1.2,2.8-1.2c4,0.1,8,1.7,10.3,1.3V179.1L206.1,179.1z"/>
		<g>
			<path class="st3" d="M158.9,302.2c16.3-4.7,32.4-11,43.4-21c3.9-3.5,7.1-7.2,9.8-11.3h-16.7v2.3h-7.7v-2.3h-18.5v-31.3h4v-5.7
				c4,1,10.6-1.2,13.5-1.2c3.3,0,4.9,1.4,4.9,1.4s1.7-1.4,4.9-1.4c2.9,0,9.5,2.2,13.5,1.2v5.7h4v28.3c5.9-10.3,8.8-22.9,9.7-40.6
				l-0.1-2.6h-64.7L158.9,302.2L158.9,302.2z"/>
		</g>
		<path class="st3" d="M66.2,226.2c0.6,16.2,3.7,29.4,10,40.4v-28h4v-5.7c4,1,10.6-1.2,13.5-1.2c3.3,0,4.9,1.4,4.9,1.4
			s1.7-1.4,4.9-1.4c2.9,0,9.5,2.2,13.5,1.2v5.7h4v31.3h-18.5v2.3h-7.7v-2.3H78.3c2.6,4,5.8,7.7,9.4,11.1
			c10.3,9.7,26.5,16.2,43.1,21.1v-78.4H66.2L66.2,226.2L66.2,226.2z"/>
		<g>
			<path class="st3" d="M96.5,263.6v-27.2c0,0-0.6-1.2-2.8-1.2c-4,0.1-8,1.7-10.3,1.3v26.9c0,0,1.5,1.1,5.5,0
				C94.1,262,96.5,263.6,96.5,263.6L96.5,263.6z"/>
		</g>
		<path class="st3" d="M76.5,88.9c4.3,1.7,12.9,3.8,19.7,3.3c3.3-0.2,8.9,1.8,9.8,2.1c2.4,0.9,6.9,2.3,9.2,2.2
			c0.1-1.1,0.7-4.3,1.2-5.7c-1.7-1.7-5.2-3.2-9.7-2.8c-9.3,0.7-15.3,0.1-18.8-0.4c-6-0.9-9.7,0-12.7,0
			C66.1,87.7,75.5,88.5,76.5,88.9L76.5,88.9z"/>
		<g>
			<path class="st3" d="M93.7,150.8c-4,0.1-8,1.7-10.3,1.3V179c0,0,1.5,1.1,5.5,0c5.2-1.5,7.5,0.1,7.5,0.1V152
				C96.5,152,95.9,150.8,93.7,150.8L93.7,150.8z"/>
		</g>
		<path class="st3" d="M195.8,150.8c-2.2-0.1-2.8,1.2-2.8,1.2v27.2c0,0,2.3-1.6,7.6-0.1c4,1.1,5.5,0,5.5,0v-26.9
			C203.8,152.5,199.9,150.9,195.8,150.8L195.8,150.8z"/>
		<g>
			<path class="st3" d="M223.5,138.9h-64.6v58.6h64.6V138.9L223.5,138.9z M213.9,185.5h-18.5v2.3h-7.7v-2.3h-18.5v-31.3h3.9v-5.7
				c4,1,10.6-1.2,13.5-1.2c3.3,0,4.9,1.4,4.9,1.4s1.7-1.4,4.9-1.4c2.9,0,9.5,2.2,13.5,1.2v5.7h3.9L213.9,185.5L213.9,185.5z"/>
		</g>
		<path class="st3" d="M193.6,236.4v27.2c0,0,2.3-1.6,7.5-0.1c4,1.2,5.5,0,5.5,0v-26.9c-2.3,0.4-6.2-1.2-10.3-1.3
			C194.2,235.2,193.6,236.4,193.6,236.4L193.6,236.4z"/>
		<g>
			<path class="st3" d="M176.4,236.6v26.9c0,0,1.5,1.1,5.5,0c5.2-1.5,7.6,0.1,7.6,0.1v-27.2c0,0-0.6-1.2-2.8-1.2
				C182.7,235.4,178.7,237,176.4,236.6L176.4,236.6z"/>
		</g>
		<path class="st3" d="M186.2,150.8c-4,0.1-8,1.7-10.3,1.3V179c0,0,1.5,1.1,5.5,0c5.2-1.5,7.5,0.1,7.5,0.1V152
			C189,152,188.4,150.8,186.2,150.8L186.2,150.8z"/>
		<g>
			<path class="st3" d="M123.9,79.6c-4.6-3.8-8.9-4.6-15.7-7.8c-1.5-0.7-4.1-2.5-4.3-2.5c-0.2-0.1-0.5-0.3-0.9-0.6
				c-0.4,1.3-1.2,3-2,4c1.1,1.4,8.7,10.1,18.4,12.8C120.5,83.6,122.2,81.4,123.9,79.6L123.9,79.6z"/>
		</g>
		<path class="st3" d="M120.2,58.5c0.3,0.5,0.7,1.2,1.3,2.2c1.5,2.5,3.9,12.1,7,15.3c1.6-1.1,4.5-2.5,6.1-3.1
			c-0.4-0.6-2.1-3.6-4-6.1c-3.7-4.9-6.3-7.5-6.6-7.9C122.9,58.8,121.2,58.9,120.2,58.5L120.2,58.5z"/>
		<g>
			<path class="st3" d="M118.3,104.3c7.7-1.8,18-1.5,22.5,2.1c7.4-4.2,18-4.5,25.8,0.1c1.5-0.8,3.2-1.3,4.8-1.8c0.2-1.4,0.3-3,0.3-4
				c0-15.1-11.8-26.9-26.9-26.9c-14.8,0-26.9,12-26.9,26.9C117.9,101.4,118.1,102.8,118.3,104.3L118.3,104.3z M147.9,88.1
				c2.7-1.1,11.4-1.6,13.9,3.2c0.3,0.6,0.1,1.4-0.6,0.8c-1.4-1.2-3.3-1.7-4-1.2v0.2c0.1,1.7-1.1,3.2-2.8,3.4
				c-1.7,0.2-3.2-1.1-3.4-2.8v-0.1c-1.1-0.4-2.9,0.3-3.2,0.2C147.6,91.7,146.9,88.5,147.9,88.1L147.9,88.1z M147.1,98.4
				c0.8-0.2,0.3-1.3,0.7-1.1c0.6,0.2,0.6,2.1,0.1,3.6c-0.6,1.6-6.2,2.1-7.2,0c-0.4-0.8-1-2.9-0.2-2.5
				C141.7,99.2,146.2,98.6,147.1,98.4L147.1,98.4z M128.5,89.9c1.9-1.7,3.8-2.7,5.4-2.9h0.1c2.7-0.2,6.3,0.4,7.9,1
				c0.7,0.3,0,3.7-0.2,3.6c-0.6-0.1-1.8-0.6-2.8-0.4v0.2c-0.1,1.7-1.5,3.1-3.3,3c-1.7-0.1-3-1.6-3-3.3v-0.3
				c-0.3-0.4-1.7-0.9-3.8,0.4C127.9,91.9,126.7,91.5,128.5,89.9L128.5,89.9z"/>
		</g>
		<path class="st3" d="M136.1,107.5c-5.7-2.7-13.7-1.8-20.4,0.6c1.9,2.5,5,8.3,6.6,10.2c3.1,3.8,8.4,1.9,8.6,0.7
			c-0.4-0.7-3.2-4.4-4.3-5c-1-0.6-1.6-1.5-1-2.3c0.9-1.3,3.1,0,4.3,1.4c1.2,1.5,4.6,5.7,5.7,6.4c3.3,2.2,9.6,1.1,9.1-0.9
			C142.5,115.9,141.6,110.1,136.1,107.5L136.1,107.5z"/>
		<g>
			<path class="st3" d="M77.4,105.6c-4.9-0.1-9.1,1.3-10.5,3.8c-2.7,4.7,0.5,8.7,2.3,9.8c4.3,2.6,8.4,0.9,8.7-0.7
				c-1.2-1.3-3.2-4.3-4.3-4.3c-1.6,0-1.5-2.2-0.3-2.6c2.9-0.9,5.7,4.5,9.8,7.5c3.7,2.6,8.8,0.7,8.8-0.4
				C89.7,116.6,87,105.8,77.4,105.6L77.4,105.6z"/>
		</g>
		<path class="st3" d="M147.8,71.2c0.7-5-0.9-13.3-1.9-15.4c-1.2-0.3-2.5-0.8-3.6-1.3c-0.1,0.6-1.1,4-1.4,9
			c-0.2,2.7-0.1,6.7,0.4,7.6C142.9,71.1,145.5,71,147.8,71.2L147.8,71.2z"/>
		<g>
			<path class="st3" d="M162.8,58.2c-3.2,2.7-8,9.2-8.6,14.3c1.5,0.6,5.4,2.5,5.9,2.9c3.9-3.8,3.1-8.1,4.6-11.3
				c0.7-1.4,1.3-2.5,1.7-3.2C165.1,60.3,163.8,59.3,162.8,58.2L162.8,58.2z"/>
		</g>
		<path class="st3" d="M175.9,118.4c3.4,3.5,8.1,2,8.3,0.8c-0.4-0.7-2.5-3.9-3.8-4.6c-1-0.6-1.7-1.5-1.2-2.3c0.9-1.3,2.8-0.4,4,1.1
			s4.5,5.8,5.6,6.4c3,1.7,9.6,1.1,9.1-0.9c-1.8-2.9-3.1-8.7-8.5-11.3c-5.7-2.7-12.9-2-19.6,0.4C171,110.5,174.1,116.7,175.9,118.4
			L175.9,118.4z"/>
		<g>
			<path class="st3" d="M174.1,95.9c1.8,0.3,3.6-2,8.8-1.9c5.4,0.1,18.7-0.6,25.4-3.3c5-1.9,9.2-2.9,12.7-3.6c1.1-0.2,3-0.5,0.7-0.8
				c-0.5-0.1-2.2-0.3-3.3-0.3c-1.5,0-11.1,0.1-13.7,0.5c-5.4,0.8-15.8,0.4-21.6,0.2c-4.3-0.2-9.2,1.5-10.7,2.3
				C172.4,89,174,93.1,174.1,95.9L174.1,95.9z"/>
		</g>
		<path class="st3" d="M101.2,59.4c0.4-0.4,1-0.3,1.6-0.1c4.6,1.5,11.1,0.5,14.2-4.4c0.4-0.7,1.3-0.9,2-0.6
			c3.2,1.3,9.6,1.9,17.5-6.1c0.6-0.6,1.5-0.5,2.2,0c6.9,5.5,14.1,5.9,21.4,1c0.5-0.3,1-0.7,1.5-0.5s0.9,0.6,1,1.2
			c2.3,10.8,13.6,9.8,17,9.3c0.4-0.1,0.9,0,1.2,0.3c0.4,0.3,0.6,0.7,0.6,1.1c0.4,2.5,3.2,7.4,8,9.9c4.1,2.1,8.6,2,13.4-0.5
			c0.5-0.2,1-0.2,1.5,0c6.1,3.3,11.6,3.5,15.1,0.5c2.4-2.1,3.4-5.4,2.5-8.4c-1.1-3.3-4.3-5.3-8.9-5.6c-0.8,0-1.4-0.6-1.5-1.4
			c-0.4-2.6-1.9-4.8-4.2-6.2c-3.6-2.2-8.9-2.4-14.1-0.7c-0.5,0.2-1,0.1-1.4-0.2s-0.7-0.7-0.8-1.2c-0.3-2-1.2-4.8-3.7-6.3
			c-2.7-1.6-6.7-1.6-11.7,0.1c-0.8,0.3-1.6-0.1-2-0.8c-3.2-6.1-7.7-10.1-13-11.5c-4.7-1.3-10-0.3-14.4,2.5c-0.6,0.4-1.3,0.3-1.9-0.1
			c-4.5-3.4-9.8-4.4-14.7-2.9c-4.7,1.4-8.3,5.1-10.1,10.4c-0.2,0.4-0.5,0.8-0.9,1s-0.9,0.2-1.3,0c-7.2-2.9-13.1-2.8-17.1,0.2
			c-3.4,2.6-4.4,6.7-4.3,7.9c0.1,0.8-0.4,1.6-1.2,1.8L93,49.5c-4,0.9-8.2,1.9-9.4,8.3c-0.1,0.7-0.7,1.2-1.5,1.3
			c-7,0.7-11.5,3.3-12.5,7.1c-0.7,2.7,0.6,5.7,3,7.4c2.5,1.7,5.5,1.5,8.2-0.5c0.5-0.3,1-0.4,1.6-0.2c4.1,1.6,10.7,1.3,14.8-2
			c2.9-2.3,4.1-5.8,3.4-10.3C100.5,60.3,100.7,59.7,101.2,59.4L101.2,59.4z M211.7,59.8c4.1-1,9.1,2.1,7.7,7.6c-0.2,1-2.6,1-2.5,0
			c0.4-4.7-1.9-5-5-5C210.7,62.5,210.8,60,211.7,59.8L211.7,59.8z M193.9,51.6c4-2.3,12.2-1.9,14.8,5.5c0.4,1.2-1.2,3.4-2.2,1.5
			c-3.1-5.7-8.1-5.7-12.3-4.1C193.3,54.8,192.5,52.4,193.9,51.6L193.9,51.6z M176.6,43.1c3.7-1.3,10.1-1.9,11.8,4.3
			c0.5,1.7-1.7,2.6-2.1,1.4c-1.7-4.5-5-4.3-8.9-3.1C175.6,46.3,176.1,43.3,176.6,43.1L176.6,43.1z M146.1,36.1
			c2.7-4.4,16.8-8.5,24,3.9c0.8,1.3-0.3,2.1-1.1,2.7c-0.6,0.4-0.9-0.5-1.3-1.1c-6.1-9.7-17.2-7.1-20.2-2.6
			C147,39.8,145.3,37.4,146.1,36.1L146.1,36.1z M123.4,36.8c2.5-3.9,11-9.9,18.5-3.3c0.8,0.7-0.2,3.5-1.1,2.8
			c-6.9-4.7-12.3-0.9-15.1,2.5C124.3,40.4,122.9,37.7,123.4,36.8L123.4,36.8z M82.9,64.2c-2.9,0-5.2,0.1-7.2,2.3
			c-2.2,2.3-1.6,3.6-2,4.1c-0.6,0.6-2.1-0.4-2-1.6c0.1-5.5,6.8-7.7,10.7-7.2C83.8,61.8,84.2,64.2,82.9,64.2L82.9,64.2z M94.6,54.9
			c-4.2,0.5-5.4,2.5-6.2,4.9c-0.3,0.9-2.7,0.3-2.3-1.5c1.1-5.2,6.7-6.5,8.8-6C95.5,52.4,95.3,54.9,94.6,54.9L94.6,54.9z M98.2,49.3
			c0.9-4.6,5.3-11.2,15.6-8.6c1.3,0.3,0.5,3.5-0.8,3c-7.5-2.9-11.2,2.7-12.4,7.2C100.3,51.5,97.8,51.2,98.2,49.3L98.2,49.3z"/>
		<g>
			<path class="st3" d="M181.6,68.4c-0.7,0.4-2.3,1.4-2.9,1.8c-3.7,2.8-11.8,6.6-13.7,8.7c1.5,1.3,3.7,3.7,4.7,5.7
				c0.9,0,3.5-2.1,8.7-8.2c1.7-1.9,3.4-3,6.6-4.8C183.7,70.7,182.6,69.6,181.6,68.4L181.6,68.4z"/>
		</g>
		<path class="st3" d="M108.1,263.5c4,1.2,5.5,0,5.5,0v-26.9c-2.3,0.4-6.2-1.2-10.3-1.3c-2.2-0.1-2.8,1.2-2.8,1.2v27.2
			C100.6,263.6,102.9,262,108.1,263.5L108.1,263.5z"/>
		<g>
			<path class="st3" d="M130.7,138.9H66.1v58.6h64.6V138.9L130.7,138.9z M120.9,185.5h-18.5v2.3h-7.7v-2.3H76.2v-31.3h3.9v-5.7
				c4,1,10.6-1.2,13.5-1.2c3.3,0,4.9,1.4,4.9,1.4s1.7-1.4,4.9-1.4c2.9,0,9.5,2.2,13.5,1.2v5.7h3.9v31.3H120.9z"/>
		</g>
		<path class="st3" d="M103.3,150.8c-2.2-0.1-2.8,1.2-2.8,1.2v27.2c0,0,2.3-1.6,7.6-0.1c4,1.1,5.5,0,5.5,0v-26.9
			C111.3,152.5,107.4,150.9,103.3,150.8L103.3,150.8z"/>
	</g>
</g>
</svg>
